<svg width="23" height="28" viewBox="0 0 23 28" fill="none" xmlns="http://www.w3.org/2000/svg">
<path d="M21.0526 0H1.97368C1.45023 0 0.948216 0.215853 0.578079 0.600073C0.207941 0.984294 0 1.50541 0 2.04878V25.6097C0.000515066 26.0582 0.124689 26.4972 0.357851 26.8747C0.591012 27.2523 0.923417 27.5527 1.31579 27.7405C1.63229 27.9128 1.9847 28.0019 2.34211 28C2.81744 27.9838 3.27661 27.817 3.6579 27.5219L10.6974 22.0585C10.9251 21.8812 11.2021 21.7853 11.4868 21.7853C11.7715 21.7853 12.0486 21.8812 12.2763 22.0585L19.3158 27.5219C19.6579 27.7883 20.0647 27.9504 20.4906 27.9903C20.9165 28.0302 21.3447 27.9461 21.7271 27.7476C22.1096 27.5491 22.4313 27.244 22.6561 26.8664C22.8809 26.4888 23 26.0536 23 25.6097V2.04878C23 1.51011 22.7957 0.993091 22.4313 0.609646C22.0668 0.226202 21.5715 0.00718226 21.0526 0Z" fill="#4C8B6D"/>
</svg>
