<svg width="350" height="19" viewBox="0 0 350 19" fill="none" xmlns="http://www.w3.org/2000/svg">
<path d="M170.389 3.7832C171.557 3.7832 172.473 4.23438 173.137 5.13672C173.738 5.94922 174.039 7.02148 174.039 8.35352C174.039 9.87695 173.65 11.0586 172.873 11.8984C172.221 12.6016 171.393 12.9531 170.389 12.9531C169.229 12.9531 168.314 12.5 167.646 11.5938C167.045 10.7773 166.744 9.70703 166.744 8.38281C166.744 6.85547 167.135 5.67383 167.916 4.83789C168.568 4.13477 169.393 3.7832 170.389 3.7832ZM170.389 4.64453C169.564 4.64453 168.924 5.00195 168.467 5.7168C168.053 6.36914 167.846 7.25195 167.846 8.36523C167.846 9.63477 168.113 10.5996 168.648 11.2598C169.094 11.8105 169.674 12.0859 170.389 12.0859C171.221 12.0859 171.863 11.7266 172.316 11.0078C172.73 10.3594 172.938 9.47852 172.938 8.36523C172.938 7.08789 172.672 6.12109 172.141 5.46484C171.695 4.91797 171.111 4.64453 170.389 4.64453ZM176.049 3.94141H179.025C181.049 3.94141 182.061 4.71289 182.061 6.25586C182.061 6.85352 181.883 7.34961 181.527 7.74414C181.203 8.10742 180.756 8.35352 180.186 8.48242L182.301 12.7832H181.146L179.201 8.65234H177.068V12.7832H176.049V3.94141ZM177.068 4.7793V7.83789H178.891C180.293 7.83789 180.994 7.31445 180.994 6.26758C180.994 5.73633 180.818 5.35156 180.467 5.11328C180.139 4.89062 179.639 4.7793 178.967 4.7793H177.068Z" fill="black"/>
<line x1="149" y1="9.5" y2="9.5" stroke="#4C8B6D" stroke-opacity="0.38"/>
<line x1="350" y1="9.5" x2="201" y2="9.5" stroke="#4C8B6D" stroke-opacity="0.38"/>
</svg>
